<mxfile host="Electron" modified="2023-12-21T17:04:37.773Z" agent="Mozilla/5.0 (Windows NT 10.0; Win64; x64) AppleWebKit/537.36 (KHTML, like Gecko) draw.io/21.6.8 Chrome/114.0.5735.289 Electron/25.5.0 Safari/537.36" etag="b-PL6ajqQJtJDrJ-cFsJ" version="21.6.8" type="device">
  <diagram name="Pagina-1" id="anrEglhLbPOCRk50g3CB">
    <mxGraphModel dx="864" dy="508" grid="1" gridSize="10" guides="1" tooltips="1" connect="1" arrows="1" fold="1" page="1" pageScale="1" pageWidth="827" pageHeight="1169" math="0" shadow="0">
      <root>
        <mxCell id="0" />
        <mxCell id="1" parent="0" />
        <mxCell id="xrSmx2TybMkUk7ohh9lg-1" value="Scraper" style="html=1;dropTarget=0;whiteSpace=wrap;" parent="1" vertex="1">
          <mxGeometry x="340" y="170" width="180" height="90" as="geometry" />
        </mxCell>
        <mxCell id="xrSmx2TybMkUk7ohh9lg-2" value="" style="shape=module;jettyWidth=8;jettyHeight=4;" parent="xrSmx2TybMkUk7ohh9lg-1" vertex="1">
          <mxGeometry x="1" width="20" height="20" relative="1" as="geometry">
            <mxPoint x="-27" y="7" as="offset" />
          </mxGeometry>
        </mxCell>
        <mxCell id="xrSmx2TybMkUk7ohh9lg-3" value="DBLP" style="html=1;dropTarget=0;whiteSpace=wrap;" parent="1" vertex="1">
          <mxGeometry x="515" y="10" width="180" height="90" as="geometry" />
        </mxCell>
        <mxCell id="xrSmx2TybMkUk7ohh9lg-4" value="" style="shape=module;jettyWidth=8;jettyHeight=4;" parent="xrSmx2TybMkUk7ohh9lg-3" vertex="1">
          <mxGeometry x="1" width="20" height="20" relative="1" as="geometry">
            <mxPoint x="-27" y="7" as="offset" />
          </mxGeometry>
        </mxCell>
        <mxCell id="xrSmx2TybMkUk7ohh9lg-5" value="Scopus" style="html=1;dropTarget=0;whiteSpace=wrap;" parent="1" vertex="1">
          <mxGeometry x="165" y="10" width="180" height="90" as="geometry" />
        </mxCell>
        <mxCell id="xrSmx2TybMkUk7ohh9lg-6" value="" style="shape=module;jettyWidth=8;jettyHeight=4;" parent="xrSmx2TybMkUk7ohh9lg-5" vertex="1">
          <mxGeometry x="1" width="20" height="20" relative="1" as="geometry">
            <mxPoint x="-27" y="7" as="offset" />
          </mxGeometry>
        </mxCell>
        <mxCell id="xrSmx2TybMkUk7ohh9lg-8" value="" style="endArrow=classic;html=1;rounded=0;entryX=0.5;entryY=1;entryDx=0;entryDy=0;dashed=1;" parent="1" target="xrSmx2TybMkUk7ohh9lg-5" edge="1">
          <mxGeometry width="50" height="50" relative="1" as="geometry">
            <mxPoint x="430" y="170" as="sourcePoint" />
            <mxPoint x="430" y="240" as="targetPoint" />
          </mxGeometry>
        </mxCell>
        <mxCell id="xrSmx2TybMkUk7ohh9lg-11" value="Server Waitress" style="html=1;dropTarget=0;whiteSpace=wrap;" parent="1" vertex="1">
          <mxGeometry x="165" y="330" width="530" height="90" as="geometry" />
        </mxCell>
        <mxCell id="xrSmx2TybMkUk7ohh9lg-12" value="" style="shape=module;jettyWidth=8;jettyHeight=4;" parent="xrSmx2TybMkUk7ohh9lg-11" vertex="1">
          <mxGeometry x="1" width="20" height="20" relative="1" as="geometry">
            <mxPoint x="-27" y="7" as="offset" />
          </mxGeometry>
        </mxCell>
        <mxCell id="xrSmx2TybMkUk7ohh9lg-13" value="Interfaccia Web" style="html=1;dropTarget=0;whiteSpace=wrap;" parent="1" vertex="1">
          <mxGeometry x="340" y="490" width="180" height="90" as="geometry" />
        </mxCell>
        <mxCell id="xrSmx2TybMkUk7ohh9lg-14" value="" style="shape=module;jettyWidth=8;jettyHeight=4;" parent="xrSmx2TybMkUk7ohh9lg-13" vertex="1">
          <mxGeometry x="1" width="20" height="20" relative="1" as="geometry">
            <mxPoint x="-27" y="7" as="offset" />
          </mxGeometry>
        </mxCell>
        <mxCell id="xrSmx2TybMkUk7ohh9lg-29" value="" style="endArrow=classic;startArrow=classic;html=1;rounded=0;entryX=0.5;entryY=1;entryDx=0;entryDy=0;exitX=0.5;exitY=0;exitDx=0;exitDy=0;" parent="1" source="xrSmx2TybMkUk7ohh9lg-11" target="xrSmx2TybMkUk7ohh9lg-1" edge="1">
          <mxGeometry width="50" height="50" relative="1" as="geometry">
            <mxPoint x="280" y="570" as="sourcePoint" />
            <mxPoint x="330" y="520" as="targetPoint" />
          </mxGeometry>
        </mxCell>
        <mxCell id="xrSmx2TybMkUk7ohh9lg-30" value="" style="endArrow=classic;html=1;rounded=0;entryX=0.5;entryY=1;entryDx=0;entryDy=0;exitX=0.5;exitY=0;exitDx=0;exitDy=0;" parent="1" source="xrSmx2TybMkUk7ohh9lg-1" target="xrSmx2TybMkUk7ohh9lg-3" edge="1">
          <mxGeometry width="50" height="50" relative="1" as="geometry">
            <mxPoint x="280" y="400" as="sourcePoint" />
            <mxPoint x="330" y="350" as="targetPoint" />
          </mxGeometry>
        </mxCell>
        <mxCell id="xrSmx2TybMkUk7ohh9lg-31" value="" style="endArrow=classic;html=1;rounded=0;exitX=0.5;exitY=0;exitDx=0;exitDy=0;" parent="1" source="xrSmx2TybMkUk7ohh9lg-13" target="xrSmx2TybMkUk7ohh9lg-11" edge="1">
          <mxGeometry width="50" height="50" relative="1" as="geometry">
            <mxPoint x="280" y="420" as="sourcePoint" />
            <mxPoint x="330" y="370" as="targetPoint" />
          </mxGeometry>
        </mxCell>
      </root>
    </mxGraphModel>
  </diagram>
</mxfile>
